<svg width="144" height="200" viewBox="0 0 144 200" fill="none" xmlns="http://www.w3.org/2000/svg">
<path d="M8.77971 128.029L8.66617 106.419L51.0758 65.3163L0 0H128.065L128.294 28.8416L114.809 15.5185H31.832L72.346 66.6963L8.77971 128.029Z" fill="#FFFFFF"/>
<path d="M128.291 143.106L8.91475 142.937L8.89319 139.595L78.4683 74.2853L88.4869 86.83L46.3417 127.638L114.343 127.731L128.291 115.006V143.106Z" fill="#FFFFFF"/>
<path d="M125.431 199.498H93.1758V166H125.431V173.574H100.749V191.925H125.431V199.498Z" fill="#FFFFFF"/>
<path d="M49.6602 199.498H17.8681V166H49.6602V173.574H25.4417V191.925H49.6602V199.498Z" fill="#FFFFFF"/>
<path d="M86.4381 199.455L56.9069 199.43L56.9136 191.856L78.8646 191.875V186.529L56.8248 186.503V166.015L86.4422 166.05L86.4341 173.625L64.3983 173.596V178.937L86.4381 178.964V199.455Z" fill="#FFFFFF"/>
<path d="M37.3739 178.987H28.2313V186.78H37.3739V178.987Z" fill="#FFFFFF"/>
</svg>
