<svg width="144" height="200" viewBox="0 0 144 200" fill="#000000" xmlns="http://www.w3.org/2000/svg">
<path d="M8.77971 128.029L8.66617 106.419L51.0758 65.3163L0 0H128.065L128.294 28.8416L114.809 15.5185H31.832L72.346 66.6963L8.77971 128.029Z" fill="#FFFFFF"/>
<path d="M128.291 143.106L8.91475 142.937L8.89319 139.595L78.4683 74.2853L88.4869 86.83L46.3417 127.638L114.343 127.731L128.291 115.006V143.106Z" fill="#FFFFFF"/>
<path d="M44.6445 199.802H36.5561V174.128H17.3051V199.802H9.21671V166.415H44.6445V199.802Z" fill="#FFFFFF"/>
<path d="M125.007 199.802H116.919V174.128H97.6679V199.802H89.5795V166.415H125.007V199.802Z" fill="#FFFFFF"/>
<path d="M82.9016 200H51.5856V192.287H74.8132V173.931H51.5856V166.218H82.9016V200Z" fill="#FFFFFF"/>
<path d="M110.041 182.804H100.636V191.224H110.041V182.804Z" fill="#FFFFFF"/>
<path d="M125.091 154.616H116.836V163.036H125.091V154.616Z" fill="#FFFFFF"/>
<path d="M143.599 191.773H134.769V199.645H143.599V191.773Z" fill="#FFFFFF"/>
</svg>
